<?xml version="1.0" encoding="UTF-8" standalone="no"?>
<svg
   id="aqz_A_Ttu4"
   viewBox="0 0 369.50665 258.68994"
   height="258.68994"
   width="369.50665"
   style="overflow:visible"
   version="1.1"
   sodipodi:docname="plantio.svg"
   inkscape:version="1.1 (c4e8f9e, 2021-05-24)"
   xmlns:inkscape="http://www.inkscape.org/namespaces/inkscape"
   xmlns:sodipodi="http://sodipodi.sourceforge.net/DTD/sodipodi-0.dtd"
   xmlns="http://www.w3.org/2000/svg"
   xmlns:svg="http://www.w3.org/2000/svg">
  <sodipodi:namedview
     id="namedview867"
     pagecolor="#ffffff"
     bordercolor="#999999"
     borderopacity="1"
     inkscape:pageshadow="0"
     inkscape:pageopacity="0"
     inkscape:pagecheckerboard="0"
     showgrid="false"
     inkscape:zoom="0.78870522"
     inkscape:cx="179.40797"
     inkscape:cy="199.69438"
     inkscape:window-width="1440"
     inkscape:window-height="847"
     inkscape:window-x="0"
     inkscape:window-y="25"
     inkscape:window-maximized="0"
     inkscape:current-layer="aqz_A_Ttu4"
     fit-margin-top="0"
     fit-margin-left="0"
     fit-margin-right="0"
     fit-margin-bottom="0" />
  <defs
     id="SvgjsDefs1156" />
  <g
     id="SvgjsG1159"
     featurekey="XxVAgm-0"
     transform="matrix(1.3151466,0,0,1.3151466,43.175151,232.12399)"
     fill="#ff5722">
    <path
       d="m 9.88,6 h 2.2 V 20 H 9.88 V 14.08 H 3.4 V 20 H 1.2 V 6 h 2.2 v 6.04 h 6.48 z m 17.096,0 v 14 h -2.2 V 6 Z m 17.216,0 c 4.04,0 7.08,3.1 7.08,6.96 0,3.94 -3.04,7.04 -7.08,7.04 h -4.52 V 6 Z m -0.02,11.92 c 3.06,0 4.86,-2.22 4.86,-4.96 0,-2.66 -1.8,-4.88 -4.86,-4.88 h -2.3 v 9.84 z M 74.168,20 h -2.36 l -3.3,-4.88 h -0.24 -2.5 V 20 h -2.2 V 6 h 4.7 c 3.14,0 5.06,1.92 5.06,4.62 0,1.96 -1.02,3.46 -2.78,4.12 z m -8.4,-11.96 v 5.16 h 2.4 c 1.78,0 2.96,-0.84 2.96,-2.58 0,-1.74 -1.18,-2.58 -2.96,-2.58 z M 93.164,5.8 c 3.76,0 7.2,2.96 7.2,7.2 0,4.24 -3.44,7.2 -7.2,7.2 -3.76,0 -7.2,-2.96 -7.2,-7.2 0,-4.24 3.44,-7.2 7.2,-7.2 z m 0,12.32 c 2.58,0 4.92,-2.12 4.92,-5.12 0,-3 -2.34,-5.12 -4.92,-5.12 -2.58,0 -4.92,2.12 -4.92,5.12 0,3 2.34,5.12 4.92,5.12 z M 117.46,6 c 3.14,0 5.06,1.92 5.06,4.62 0,2.7 -1.92,4.5 -5.06,4.5 h -2.5 V 20 h -2.2 V 6 Z m -0.1,7.2 c 1.78,0 2.96,-0.84 2.96,-2.58 0,-1.74 -1.18,-2.58 -2.96,-2.58 h -2.4 v 5.16 z m 24.256,-7.4 c 3.76,0 7.2,2.96 7.2,7.2 0,4.24 -3.44,7.2 -7.2,7.2 -3.76,0 -7.2,-2.96 -7.2,-7.2 0,-4.24 3.44,-7.2 7.2,-7.2 z m 0,12.32 c 2.58,0 4.92,-2.12 4.92,-5.12 0,-3 -2.34,-5.12 -4.92,-5.12 -2.58,0 -4.92,2.12 -4.92,5.12 0,3 2.34,5.12 4.92,5.12 z M 170.712,6 h 2.2 v 14 h -1.68 l -7.82,-9.98 V 20 h -2.2 V 6 h 1.7 l 7.8,10 z m 17.096,0 v 14 h -2.2 V 6 Z m 23.956,14 -1.28,-2.96 h -7.16 l -1.28,2.96 h -2.34 l 6.24,-14 h 1.92 l 6.24,14 z m -7.64,-4.78 h 5.56 l -2.78,-6.44 z"
       id="path863" />
  </g>
  <g
     id="g5702"
     transform="translate(2,-29.24816)">
    <path
       id="path968"
       style="fill:#303841;stroke-width:5.52923"
       d="m 337.86992,180.23633 c -8.84676,0 -15.9798,2.72845 -21.39844,8.18359 -5.41864,5.45513 -8.12695,12.7903 -8.12695,22.00586 0,8.92086 2.65288,16.16442 7.96094,21.73047 5.30806,5.56605 12.49652,8.34961 21.56445,8.34961 8.92085,0 16.08917,-2.74554 21.50781,-8.23828 5.41864,-5.49273 8.12891,-12.77387 8.12891,-21.8418 0,-8.99383 -2.65483,-16.27379 -7.96289,-21.83984 -5.30805,-5.56605 -12.53236,-8.34961 -21.67383,-8.34961 z m -0.11133,11.83398 c 4.57101,0 8.05515,1.584 10.45117,4.75391 2.39605,3.1699 3.59376,7.70354 3.59376,13.60156 -10e-6,5.67686 -1.16016,10.13708 -3.48243,13.38086 -2.32228,3.24377 -5.80662,4.86719 -10.45117,4.86719 -4.49692,0 -7.92605,-1.5854 -10.28516,-4.75586 -2.35909,-3.17045 -3.5371,-7.66825 -3.5371,-13.49219 0,-5.89802 1.17778,-10.43143 3.5371,-13.60156 2.35933,-3.17013 5.75044,-4.75391 10.17383,-4.75391 z" />
    <path
       style="fill:#303841;stroke-width:5.52923"
       d="m 297.72778,181.78516 v 57.17219 h -15.703 v -57.17219 z"
       id="path966" />
    <path
       style="fill:#303841;stroke-width:5.52923"
       d="m 297.72778,160.00001 v 12.93839 h -15.703 v -12.93839 z"
       id="path964" />
    <path
       style="fill:#008000;stroke-width:5.52923"
       d="m 243.05528,164.64456 1.1e-4,17.1406 h 11.50079 v 10.50552 h -11.50079 v 28.30964 c 0,2.65403 0.44234,4.42338 1.32702,5.30805 0.88467,0.88468 2.65402,1.32702 5.30805,1.32702 1.91676,0 3.53871,-0.14741 4.86572,-0.44234 v 12.27488 c -2.21169,0.36858 -5.30806,0.55292 -9.2891,0.55292 -6.0451,0 -10.54257,-1.03208 -13.49131,-3.09636 -2.94873,-2.06428 -4.42338,-5.63981 -4.42338,-10.7267 v -33.50711 h -9.51027 v -10.50552 h 9.51027 v -17.1406 h 15.703 z"
       id="path962" />
    <path
       style="fill:#008000;stroke-width:5.52923"
       d="m 190.41706,180.23697 c 7.29857,0 12.58783,1.84334 15.86887,5.52923 3.28105,3.68589 4.92101,9.54731 4.92101,17.58294 v 35.60821 h -15.703 v -32.40126 c 0,-4.71831 -0.75562,-8.2203 -2.26698,-10.50553 -1.51136,-2.28523 -4.11009,-3.42812 -7.79621,-3.42812 -4.27597,0 -7.37211,1.29019 -9.2891,3.87046 -1.91698,2.58026 -2.87519,6.81919 -2.87519,12.71721 v 29.74724 h -15.703 v -57.17219 h 14.92891 v 7.96208 h 0.33175 c 3.90728,-6.34036 9.76848,-9.51027 17.58294,-9.51027 z"
       id="path960" />
    <path
       id="path956"
       style="fill:#008000;stroke-width:5.52923"
       d="m 120.41798,180.23633 c -8.03617,0 -14.45013,1.6232 -19.2422,4.86719 -4.792068,3.244 -7.373608,7.9974 -7.742186,14.26367 h 15.703126 c 0.29493,-3.02271 1.29052,-5.21429 2.98634,-6.57813 1.69581,-1.36383 4.202,-2.04687 7.51953,-2.04687 3.61247,0 6.19401,0.62749 7.74219,1.88086 1.54818,1.25336 2.32226,3.16973 2.32226,5.75 0,2.06428 -0.84911,3.59458 -2.54492,4.58984 -1.69581,0.99526 -5.71237,1.82477 -12.05273,2.48828 -8.92031,0.81103 -15.07747,2.7274 -18.468766,5.75 -3.317536,2.8752 -4.974609,6.92976 -4.974609,12.16406 0,5.3816 1.750295,9.58287 5.251953,12.60547 3.501662,3.02261 8.239372,4.53516 14.210952,4.53516 8.18325,0 14.59568,-2.35982 19.24023,-7.07813 0.14741,1.91676 0.51573,3.75994 1.10547,5.5293 h 15.92578 c -1.32701,-2.5064 -1.99219,-6.5613 -1.99219,-12.16406 v -30.30078 c 0,-10.76375 -8.32846,-16.18206 -24.99023,-16.25586 z m 9.28906,30.74219 v 6.08398 c -0.0741,8.55184 -4.31432,12.8637 -12.71875,12.9375 -6.4139,0 -9.6211,-2.43311 -9.6211,-7.29883 0,-2.87519 1.03359,-4.95786 3.09766,-6.24805 2.06406,-1.29019 5.30709,-2.19288 9.73047,-2.70898 5.08689,-0.58975 8.25847,-1.51237 9.51172,-2.76562 z" />
    <path
       style="fill:#008000;stroke-width:5.52923"
       d="m 81.712476,160.00001 v 78.95734 h -15.703 v -78.95734 z"
       id="path954" />
    <path
       id="path860"
       style="fill:#008000;stroke-width:5.52923"
       d="m 30.179687,180.23633 c -7.593285,0 -13.269423,2.94963 -17.029296,8.84765 h -0.220703 v -7.29882 H -2 v 77.29882 h 15.703125 v -27.20312 h 0.220703 c 3.90695,5.75039 9.620879,8.625 17.140625,8.625 7.667377,0 13.768768,-2.76569 18.302735,-8.29492 4.533964,-5.52922 6.800781,-12.60683 6.800781,-21.23242 0,-9.43618 -2.359484,-16.91804 -7.078125,-22.44727 -4.71864,-5.52922 -11.02161,-8.29492 -18.910157,-8.29492 z m -3.539062,11.83398 c 4.349841,0 7.740969,1.63943 10.173828,4.91992 2.432859,3.28049 3.65039,7.79648 3.65039,13.54688 0,5.60276 -1.12431,10.02575 -3.373046,13.26953 -2.248737,3.24377 -5.657725,4.86719 -10.228516,4.86719 -4.42338,0 -7.814729,-1.62319 -10.173828,-4.86719 -2.359099,-3.244 -3.539062,-7.66677 -3.539062,-13.26953 0,-5.82394 1.160146,-10.35778 3.482421,-13.60156 2.322275,-3.24377 5.657972,-4.86524 10.007813,-4.86524 z" />
    <circle
       style="fill:#303841;fill-opacity:1;stroke-width:5.66929;stroke-linecap:round;stroke-linejoin:round"
       id="path957"
       cx="268.35834"
       cy="231.55858"
       r="8.0622673" />
  </g>
  <path
     class="a"
     fill="#008000"
     d="m 219.16171,34.40838 c -61.9351,13.76335 -76.38661,56.2233 -90.7005,91.80157 l 13.00636,4.5419 6.5376,-15.82786 c 3.3032,1.16989 6.74403,2.06451 9.22144,2.06451 C 232.92507,116.9885 253.5701,0 253.5701,0 c -6.88168,13.76333 -55.05342,15.48377 -89.46181,22.36544 -34.40839,6.88166 -48.17174,36.1288 -48.17174,49.89215 0,13.76335 12.04294,25.80629 12.04294,25.80629 22.36544,-63.6555 91.18222,-63.6555 91.18222,-63.6555 z"
     id="path1170"
     style="stroke-width:0.322579" />
</svg>
