<?xml version="1.0" encoding="UTF-8" standalone="no"?>
<svg
   id="aqz_A_Ttu4"
   viewBox="0 0 350 288"
   height="288"
   width="350"
   style="overflow:visible"
   version="1.1"
   sodipodi:docname="plantio.svg"
   inkscape:version="1.1 (c4e8f9e, 2021-05-24)"
   xmlns:inkscape="http://www.inkscape.org/namespaces/inkscape"
   xmlns:sodipodi="http://sodipodi.sourceforge.net/DTD/sodipodi-0.dtd"
   xmlns="http://www.w3.org/2000/svg"
   xmlns:svg="http://www.w3.org/2000/svg">
  <sodipodi:namedview
     id="namedview867"
     pagecolor="#ffffff"
     bordercolor="#999999"
     borderopacity="1"
     inkscape:pageshadow="0"
     inkscape:pageopacity="0"
     inkscape:pagecheckerboard="0"
     showgrid="false"
     inkscape:zoom="2.1706053"
     inkscape:cx="146.73326"
     inkscape:cy="156.86868"
     inkscape:window-width="2032"
     inkscape:window-height="1003"
     inkscape:window-x="270"
     inkscape:window-y="0"
     inkscape:window-maximized="0"
     inkscape:current-layer="aqz_A_Ttu4" />
  <defs
     id="SvgjsDefs1156" />
  <g
     id="SvgjsG1157"
     featurekey="ghXSps-0"
     transform="matrix(1.7499393,0,0,1.7499393,87.220003,-18.015623)"
     fill="#ff5722">
    <path
       d="m 42.807,26.194 c 0,3.991 3.247,7.238 7.238,7.238 3.991,0 7.238,-3.247 7.238,-7.238 0,-3.991 -3.247,-7.238 -7.238,-7.238 -3.991,0 -7.238,3.247 -7.238,7.238 z m 12.476,0 c 0,2.889 -2.35,5.238 -5.238,5.238 -2.888,0 -5.238,-2.35 -5.238,-5.238 0,-2.888 2.35,-5.238 5.238,-5.238 2.888,0 5.238,2.35 5.238,5.238 z"
       id="path825" />
    <path
       d="m 50.045,16.137 c 0.552,0 1,-0.447 1,-1 v -3.842 c 0,-0.553 -0.448,-1 -1,-1 -0.552,0 -1,0.447 -1,1 v 3.842 c 0,0.552 0.448,1 1,1 z"
       id="path827" />
    <path
       d="m 43.701,17.082 c 0.184,0.323 0.522,0.505 0.87,0.505 0.168,0 0.338,-0.042 0.494,-0.131 0.48,-0.273 0.647,-0.885 0.374,-1.364 l -1.902,-3.337 c -0.273,-0.48 -0.884,-0.648 -1.364,-0.374 -0.48,0.273 -0.647,0.885 -0.374,1.364 z"
       id="path829" />
    <path
       d="m 36.716,19.462 3.305,1.958 c 0.16,0.095 0.335,0.14 0.509,0.14 0.342,0 0.675,-0.175 0.861,-0.49 0.282,-0.476 0.125,-1.089 -0.351,-1.37 l -3.305,-1.958 c -0.476,-0.282 -1.089,-0.125 -1.37,0.351 -0.282,0.474 -0.124,1.088 0.351,1.369 z"
       id="path831" />
    <path
       d="m 35.131,26.946 3.841,0.063 c 0.006,0 0.011,0 0.017,0 0.544,0 0.99,-0.437 1,-0.983 0.009,-0.553 -0.431,-1.008 -0.983,-1.017 l -3.841,-0.063 c -0.542,0.009 -1.007,0.431 -1.017,0.983 -0.009,0.553 0.431,1.009 0.983,1.017 z"
       id="path833" />
    <path
       d="m 39.868,30.632 -3.369,1.847 c -0.484,0.266 -0.662,0.873 -0.396,1.357 0.182,0.332 0.524,0.52 0.878,0.52 0.163,0 0.327,-0.039 0.479,-0.123 l 3.369,-1.847 c 0.484,-0.266 0.662,-0.873 0.396,-1.357 -0.266,-0.486 -0.874,-0.664 -1.357,-0.397 z"
       id="path835" />
    <path
       d="m 41.716,39.737 c 0.164,0.101 0.344,0.148 0.523,0.148 0.336,0 0.664,-0.169 0.853,-0.477 l 2.012,-3.272 c 0.289,-0.47 0.142,-1.086 -0.328,-1.375 -0.472,-0.29 -1.087,-0.144 -1.376,0.328 l -2.012,3.272 c -0.289,0.471 -0.142,1.087 0.328,1.376 z"
       id="path837" />
    <path
       d="m 48.677,37.213 -0.128,3.839 c -0.019,0.552 0.414,1.015 0.966,1.032 0.011,10e-4 0.022,10e-4 0.034,10e-4 0.537,0 0.981,-0.426 0.999,-0.967 l 0.128,-3.839 c 0.019,-0.552 -0.414,-1.015 -0.966,-1.032 -0.546,-0.038 -1.014,0.414 -1.033,0.966 z"
       id="path839" />
    <path
       d="m 54.732,35.094 c -0.489,0.258 -0.676,0.862 -0.419,1.351 l 1.79,3.398 c 0.179,0.34 0.526,0.534 0.886,0.534 0.157,0 0.316,-0.037 0.465,-0.115 0.489,-0.258 0.676,-0.862 0.419,-1.351 l -1.79,-3.398 c -0.257,-0.488 -0.861,-0.676 -1.351,-0.419 z"
       id="path841" />
    <path
       d="m 59.905,31.3 c -0.466,-0.297 -1.083,-0.16 -1.381,0.305 -0.297,0.466 -0.161,1.084 0.305,1.381 l 3.238,2.066 c 0.167,0.106 0.353,0.157 0.537,0.157 0.33,0 0.653,-0.163 0.844,-0.462 0.297,-0.466 0.161,-1.084 -0.305,-1.381 z"
       id="path843" />
    <path
       d="m 60.091,26.696 c -0.028,0.552 0.397,1.021 0.948,1.049 l 3.837,0.192 c 0.017,10e-4 0.034,10e-4 0.051,10e-4 0.529,0 0.971,-0.415 0.998,-0.95 0.028,-0.552 -0.397,-1.021 -0.948,-1.049 L 61.14,25.747 c -0.542,-0.022 -1.022,0.398 -1.049,0.949 z"
       id="path845" />
    <path
       d="m 59.021,21.656 c 0.176,0.349 0.528,0.549 0.894,0.549 0.151,0 0.306,-0.034 0.45,-0.107 l 3.428,-1.733 c 0.493,-0.249 0.69,-0.851 0.441,-1.344 -0.25,-0.493 -0.851,-0.691 -1.344,-0.441 l -3.428,1.733 c -0.493,0.249 -0.69,0.85 -0.441,1.343 z"
       id="path847" />
    <path
       d="m 55.597,17.807 c 0.17,0.112 0.361,0.166 0.551,0.166 0.324,0 0.643,-0.157 0.835,-0.448 l 2.12,-3.203 c 0.305,-0.46 0.179,-1.081 -0.282,-1.386 -0.462,-0.305 -1.081,-0.179 -1.386,0.282 l -2.12,3.203 c -0.305,0.46 -0.179,1.081 0.282,1.386 z"
       id="path849" />
    <path
       d="m 76.309,76.86 c 4.262,-1.508 8.653,-2.837 13.093,-3.934 0.536,-0.133 0.864,-0.675 0.731,-1.211 -0.132,-0.536 -0.678,-0.862 -1.21,-0.73 -4.976,1.23 -9.899,2.736 -14.643,4.47 -2.52,-1.701 -5.064,-3.268 -7.611,-4.714 7.293,-2.75 14.912,-4.912 22.684,-6.419 0.542,-0.104 0.896,-0.63 0.792,-1.172 -0.105,-0.542 -0.628,-0.899 -1.172,-0.791 -8.445,1.637 -16.72,4.03 -24.595,7.111 -2.904,-1.567 -5.803,-2.98 -8.664,-4.251 13.376,-5.532 25.569,-8.015 33.585,-9.12 0.547,-0.075 0.929,-0.58 0.854,-1.127 -0.076,-0.547 -0.581,-0.937 -1.127,-0.854 -8.489,1.17 -21.593,3.855 -35.862,10.001 -3.333,-1.398 -6.599,-2.61 -9.745,-3.659 23.745,-11.072 45.561,-12.121 45.785,-12.131 0.552,-0.023 0.98,-0.489 0.957,-1.041 -0.023,-0.553 -0.48,-0.977 -1.041,-0.957 -0.093,0.004 -3.862,0.185 -9.923,1.162 v -2.328 c 0.196,0.011 0.412,0.019 0.653,0.019 1.466,0 3.635,-0.278 5.071,-1.715 2.296,-2.296 1.634,-6.464 1.604,-6.64 -0.07,-0.422 -0.401,-0.752 -0.822,-0.822 -0.123,-0.019 -2.225,-0.35 -4.26,0.255 0.512,-0.853 0.895,-1.847 0.895,-2.93 0,-3.246 -3.415,-5.726 -3.56,-5.829 -0.348,-0.248 -0.815,-0.248 -1.163,0 -0.146,0.104 -3.56,2.583 -3.56,5.829 0,1.08 0.381,2.072 0.891,2.923 -2.029,-0.598 -4.117,-0.27 -4.24,-0.248 -0.422,0.07 -0.752,0.4 -0.822,0.822 -0.029,0.177 -0.691,4.344 1.605,6.64 1.437,1.437 3.605,1.715 5.071,1.715 0.234,0 0.446,-0.007 0.638,-0.018 V 47.83 C 68.009,49.453 54.558,52.787 40.641,59.568 34.865,57.774 29.572,56.527 25.114,55.666 v -2.839 c 0.196,0.011 0.411,0.019 0.651,0.019 1.465,0 3.636,-0.278 5.073,-1.715 2.296,-2.296 1.634,-6.463 1.605,-6.64 -0.07,-0.422 -0.4,-0.752 -0.822,-0.822 -0.123,-0.02 -2.225,-0.35 -4.26,0.254 0.512,-0.852 0.894,-1.846 0.894,-2.929 0,-3.248 -3.415,-5.726 -3.56,-5.829 -0.348,-0.248 -0.815,-0.248 -1.163,0 -0.145,0.104 -3.56,2.581 -3.56,5.829 0,1.08 0.381,2.072 0.89,2.923 -2.028,-0.597 -4.116,-0.268 -4.239,-0.248 -0.422,0.07 -0.752,0.4 -0.822,0.822 -0.029,0.176 -0.692,4.344 1.604,6.64 1.438,1.437 3.607,1.715 5.073,1.715 0.233,0 0.444,-0.007 0.636,-0.018 v 2.466 c -7.196,-1.283 -11.766,-1.51 -11.91,-1.516 -0.533,-0.029 -1.017,0.405 -1.041,0.957 -0.023,0.552 0.405,1.018 0.957,1.041 0.454,0.02 45.725,2.291 77.335,33.9 0.195,0.195 0.451,0.293 0.707,0.293 0.256,0 0.512,-0.098 0.707,-0.293 0.391,-0.391 0.391,-1.023 0,-1.414 -4.318,-4.318 -8.887,-8.093 -13.56,-11.402 z m 8.318,-38.953 c 0.06,1.199 -0.083,3.112 -1.12,4.148 -1.035,1.034 -2.941,1.175 -4.143,1.12 -0.054,-1.076 0.018,-3.052 1.114,-4.148 1.037,-1.036 2.951,-1.182 4.149,-1.12 z m -6.43,-8.299 c 0.891,0.806 2.142,2.26 2.142,3.725 0,1.466 -1.25,2.92 -2.142,3.726 -0.891,-0.806 -2.142,-2.26 -2.142,-3.726 10e-4,-1.465 1.251,-2.919 2.142,-3.725 z m -1.146,13.567 c -1.204,0.062 -3.113,-0.083 -4.148,-1.119 -1.035,-1.035 -1.18,-2.943 -1.12,-4.144 1.077,-0.046 3.052,0.02 4.149,1.115 1.035,1.036 1.179,2.949 1.119,4.148 z m -46.513,2.392 c 0.054,1.077 -0.018,3.053 -1.114,4.149 -1.035,1.033 -2.946,1.175 -4.143,1.12 -0.054,-1.077 0.018,-3.053 1.114,-4.149 1.035,-1.034 2.943,-1.177 4.143,-1.12 z M 24.11,37.272 c 0.799,0.723 2.146,2.171 2.146,3.722 0,1.463 -1.247,2.915 -2.138,3.722 -0.799,-0.723 -2.146,-2.171 -2.146,-3.722 0,-1.463 1.247,-2.915 2.138,-3.722 z m -1.142,13.564 c -1.2,0.063 -3.112,-0.084 -4.148,-1.119 -1.036,-1.036 -1.18,-2.949 -1.12,-4.148 1.2,-0.067 3.112,0.083 4.148,1.119 1.036,1.036 1.18,2.949 1.12,4.148 z"
       id="path851" />
    <path
       d="m 74.279,89.97 c 0.291,0 0.579,-0.126 0.776,-0.369 0.348,-0.428 0.284,-1.058 -0.145,-1.406 C 51.912,69.484 25.184,63.479 11.299,61.565 c -0.545,-0.078 -1.052,0.306 -1.127,0.854 -0.075,0.547 0.307,1.052 0.854,1.127 13.678,1.886 40.002,7.798 62.623,26.2 0.184,0.15 0.408,0.224 0.63,0.224 z"
       id="path853" />
    <path
       d="m 11.352,69.805 c -0.542,-0.104 -1.067,0.25 -1.172,0.791 -0.105,0.542 0.25,1.067 0.792,1.172 11.733,2.275 29.233,7.252 45.97,18.042 0.168,0.107 0.355,0.159 0.541,0.159 0.329,0 0.65,-0.161 0.841,-0.458 0.299,-0.464 0.166,-1.083 -0.298,-1.383 C 41.02,77.165 23.258,72.112 11.352,69.805 Z"
       id="path855" />
    <path
       d="m 37.995,90.047 c 0.371,0 0.727,-0.207 0.9,-0.562 0.241,-0.497 0.035,-1.095 -0.462,-1.337 -8.412,-4.092 -17.507,-7.361 -27.032,-9.718 -0.537,-0.131 -1.078,0.194 -1.211,0.73 -0.133,0.536 0.194,1.078 0.73,1.211 9.389,2.322 18.351,5.544 26.637,9.575 0.143,0.069 0.292,0.101 0.438,0.101 z"
       id="path857" />
  </g>
  <path
     id="path968"
     style="fill:#303841;stroke-width:5.52923"
     d="m 320.36328,180.23633 c -8.84676,0 -15.9798,2.72845 -21.39844,8.18359 -5.41864,5.45513 -8.12695,12.7903 -8.12695,22.00586 0,8.92086 2.65288,16.16442 7.96094,21.73047 5.30806,5.56605 12.49652,8.34961 21.56445,8.34961 8.92085,0 16.08917,-2.74554 21.50781,-8.23828 5.41864,-5.49273 8.12891,-12.77387 8.12891,-21.8418 0,-8.99383 -2.65483,-16.27379 -7.96289,-21.83984 -5.30805,-5.56605 -12.53236,-8.34961 -21.67383,-8.34961 z m -0.11133,11.83398 c 4.57101,0 8.05515,1.584 10.45117,4.75391 2.39605,3.1699 3.59376,7.70354 3.59376,13.60156 -10e-6,5.67686 -1.16016,10.13708 -3.48243,13.38086 -2.32228,3.24377 -5.80662,4.86719 -10.45117,4.86719 -4.49692,0 -7.92605,-1.5854 -10.28516,-4.75586 -2.35909,-3.17045 -3.5371,-7.66825 -3.5371,-13.49219 0,-5.89802 1.17778,-10.43143 3.5371,-13.60156 2.35933,-3.17013 5.75044,-4.75391 10.17383,-4.75391 z" />
  <path
     style="fill:#303841;stroke-width:5.52923"
     d="m 280.22114,181.78516 v 57.17219 h -15.703 v -57.17219 z"
     id="path966" />
  <path
     style="fill:#303841;stroke-width:5.52923"
     d="m 280.22114,160.00001 v 12.93839 h -15.703 v -12.93839 z"
     id="path964" />
  <path
     style="fill:#008000;stroke-width:5.52923"
     d="m 245.05527,164.64456 1.1e-4,17.1406 h 11.50079 v 10.50552 h -11.50079 v 28.30964 c 0,2.65403 0.44234,4.42338 1.32702,5.30805 0.88467,0.88468 2.65402,1.32702 5.30805,1.32702 1.91676,0 3.53871,-0.14741 4.86572,-0.44234 v 12.27488 c -2.21169,0.36858 -5.30806,0.55292 -9.2891,0.55292 -6.0451,0 -10.54257,-1.03208 -13.49131,-3.09636 -2.94873,-2.06428 -4.42338,-5.63981 -4.42338,-10.7267 v -33.50711 h -9.51027 v -10.50552 h 9.51027 v -17.1406 h 15.703 z"
     id="path962" />
  <path
     style="fill:#008000;stroke-width:5.52923"
     d="m 192.41705,180.23697 c 7.29857,0 12.58783,1.84334 15.86887,5.52923 3.28105,3.68589 4.92101,9.54731 4.92101,17.58294 v 35.60821 h -15.703 v -32.40126 c 0,-4.71831 -0.75562,-8.2203 -2.26698,-10.50553 -1.51136,-2.28523 -4.11009,-3.42812 -7.79621,-3.42812 -4.27597,0 -7.37211,1.29019 -9.2891,3.87046 -1.91698,2.58026 -2.87519,6.81919 -2.87519,12.71721 v 29.74724 h -15.703 v -57.17219 h 14.92891 v 7.96208 h 0.33175 c 3.90728,-6.34036 9.76848,-9.51027 17.58294,-9.51027 z"
     id="path960" />
  <path
     id="path956"
     style="fill:#008000;stroke-width:5.52923"
     d="m 122.41797,180.23633 c -8.03617,0 -14.45012,1.6232 -19.24219,4.86719 -4.792068,3.244 -7.373608,7.9974 -7.742186,14.26367 h 15.703126 c 0.29493,-3.02271 1.29051,-5.21429 2.98633,-6.57813 1.69581,-1.36383 4.202,-2.04687 7.51953,-2.04687 3.61247,0 6.19401,0.62749 7.74219,1.88086 1.54818,1.25336 2.32226,3.16973 2.32226,5.75 0,2.06428 -0.84911,3.59458 -2.54492,4.58984 -1.69581,0.99526 -5.71237,1.82477 -12.05273,2.48828 -8.9203,0.81103 -15.07746,2.7274 -18.468755,5.75 -3.317536,2.8752 -4.974609,6.92976 -4.974609,12.16406 0,5.3816 1.750295,9.58287 5.251953,12.60547 3.501661,3.02261 8.239371,4.53516 14.210941,4.53516 8.18325,0 14.59568,-2.35982 19.24023,-7.07813 0.14741,1.91676 0.51573,3.75994 1.10547,5.5293 h 15.92578 c -1.32701,-2.5064 -1.99219,-6.5613 -1.99219,-12.16406 v -30.30078 c 0,-10.76375 -8.32846,-16.18206 -24.99023,-16.25586 z m 9.28906,30.74219 v 6.08398 c -0.0741,8.55184 -4.31432,12.8637 -12.71875,12.9375 -6.4139,0 -9.62109,-2.43311 -9.62109,-7.29883 0,-2.87519 1.03359,-4.95786 3.09765,-6.24805 2.06406,-1.29019 5.30709,-2.19288 9.73047,-2.70898 5.08689,-0.58975 8.25847,-1.51237 9.51172,-2.76562 z" />
  <path
     style="fill:#008000;stroke-width:5.52923"
     d="m 83.712477,160.00001 v 78.95734 h -15.703 v -78.95734 z"
     id="path954" />
  <path
     id="path860"
     style="fill:#008000;stroke-width:5.52923"
     d="m 32.179688,180.23633 c -7.593285,0 -13.269424,2.94963 -17.029297,8.84765 h -0.220703 v -7.29882 H 0 v 77.29882 h 15.703125 v -27.20312 h 0.220703 c 3.90695,5.75039 9.620879,8.625 17.140625,8.625 7.667377,0 13.768769,-2.76569 18.302735,-8.29492 4.533964,-5.52922 6.800781,-12.60683 6.800781,-21.23242 0,-9.43618 -2.359484,-16.91804 -7.078125,-22.44727 -4.71864,-5.52922 -11.021611,-8.29492 -18.910156,-8.29492 z m -3.539063,11.83398 c 4.349842,0 7.740969,1.63943 10.173828,4.91992 2.432859,3.28049 3.650391,7.79648 3.650391,13.54688 0,5.60276 -1.124311,10.02575 -3.373047,13.26953 -2.248736,3.24377 -5.657726,4.86719 -10.228516,4.86719 -4.42338,0 -7.814729,-1.62319 -10.173828,-4.86719 -2.359099,-3.244 -3.539062,-7.66677 -3.539062,-13.26953 0,-5.82394 1.160146,-10.35778 3.482421,-13.60156 2.322275,-3.24377 5.657972,-4.86524 10.007813,-4.86524 z" />
  <g
     id="SvgjsG1159"
     featurekey="XxVAgm-0"
     transform="matrix(1.3151466,0,0,1.3151466,33.421824,261.37215)"
     fill="#ff5722">
    <path
       d="m 9.88,6 h 2.2 V 20 H 9.88 V 14.08 H 3.4 V 20 H 1.2 V 6 h 2.2 v 6.04 h 6.48 z m 17.096,0 v 14 h -2.2 V 6 Z m 17.216,0 c 4.04,0 7.08,3.1 7.08,6.96 0,3.94 -3.04,7.04 -7.08,7.04 h -4.52 V 6 Z m -0.02,11.92 c 3.06,0 4.86,-2.22 4.86,-4.96 0,-2.66 -1.8,-4.88 -4.86,-4.88 h -2.3 v 9.84 z M 74.168,20 h -2.36 l -3.3,-4.88 h -0.24 -2.5 V 20 h -2.2 V 6 h 4.7 c 3.14,0 5.06,1.92 5.06,4.62 0,1.96 -1.02,3.46 -2.78,4.12 z m -8.4,-11.96 v 5.16 h 2.4 c 1.78,0 2.96,-0.84 2.96,-2.58 0,-1.74 -1.18,-2.58 -2.96,-2.58 z M 93.164,5.8 c 3.76,0 7.2,2.96 7.2,7.2 0,4.24 -3.44,7.2 -7.2,7.2 -3.76,0 -7.2,-2.96 -7.2,-7.2 0,-4.24 3.44,-7.2 7.2,-7.2 z m 0,12.32 c 2.58,0 4.92,-2.12 4.92,-5.12 0,-3 -2.34,-5.12 -4.92,-5.12 -2.58,0 -4.92,2.12 -4.92,5.12 0,3 2.34,5.12 4.92,5.12 z M 117.46,6 c 3.14,0 5.06,1.92 5.06,4.62 0,2.7 -1.92,4.5 -5.06,4.5 h -2.5 V 20 h -2.2 V 6 Z m -0.1,7.2 c 1.78,0 2.96,-0.84 2.96,-2.58 0,-1.74 -1.18,-2.58 -2.96,-2.58 h -2.4 v 5.16 z m 24.256,-7.4 c 3.76,0 7.2,2.96 7.2,7.2 0,4.24 -3.44,7.2 -7.2,7.2 -3.76,0 -7.2,-2.96 -7.2,-7.2 0,-4.24 3.44,-7.2 7.2,-7.2 z m 0,12.32 c 2.58,0 4.92,-2.12 4.92,-5.12 0,-3 -2.34,-5.12 -4.92,-5.12 -2.58,0 -4.92,2.12 -4.92,5.12 0,3 2.34,5.12 4.92,5.12 z M 170.712,6 h 2.2 v 14 h -1.68 l -7.82,-9.98 V 20 h -2.2 V 6 h 1.7 l 7.8,10 z m 17.096,0 v 14 h -2.2 V 6 Z m 23.956,14 -1.28,-2.96 h -7.16 l -1.28,2.96 h -2.34 l 6.24,-14 h 1.92 l 6.24,14 z m -7.64,-4.78 h 5.56 l -2.78,-6.44 z"
       id="path863" />
  </g>
</svg>
